
<svg width="133px" height="134px" viewBox="0 0 133 134" version="1.1" xmlns="http://www.w3.org/2000/svg" xmlns:xlink="http://www.w3.org/1999/xlink">
    <g id="Page-1" stroke="none" stroke-width="1" fill="none" fill-rule="evenodd">
        <g id="A4" transform="translate(-55.000000, -199.000000)">
            <g id="0218-document2" transform="translate(55.000000, 199.000000)">
                <path d="M120.53125,134 L12.46875,134 C5.5943125,134 0,129.253579 0,123.421053 L0,10.5789474 C0,4.74642105 5.5943125,0 12.46875,0 L120.53125,0 C127.405687,0 133,4.74642105 133,10.5789474 L133,123.421053 C133,129.253579 127.405687,134 120.53125,134 Z M12.46875,7.05263158 C10.1745,7.05263158 8.3125,8.63242105 8.3125,10.5789474 L8.3125,123.421053 C8.3125,125.367579 10.1745,126.947368 12.46875,126.947368 L120.53125,126.947368 C122.8255,126.947368 124.6875,125.367579 124.6875,123.421053 L124.6875,10.5789474 C124.6875,8.63242105 122.8255,7.05263158 120.53125,7.05263158 L12.46875,7.05263158 Z" id="Shape" fill="#F99744" fill-rule="nonzero"></path>
                <path d="M53.875,28 L29.125,28 C26.848,28 25,26.432 25,24.5 C25,22.568 26.848,21 29.125,21 L53.875,21 C56.152,21 58,22.568 58,24.5 C58,26.432 56.152,28 53.875,28 Z" id="Path" fill="#FFFFFF"></path>
                <path d="M53.875,43 L29.125,43 C26.848,43 25,41.432 25,39.5 C25,37.568 26.848,36 29.125,36 L53.875,36 C56.152,36 58,37.568 58,39.5 C58,41.432 56.152,43 53.875,43 Z" id="Path" fill="#FFFFFF"></path>
                <path d="M53.875,56 L29.125,56 C26.848,56 25,54.432 25,52.5 C25,50.568 26.848,49 29.125,49 L53.875,49 C56.152,49 58,50.568 58,52.5 C58,54.432 56.152,56 53.875,56 Z" id="Path" fill="#FFFFFF"></path>
                <path d="M53.875,71 L29.125,71 C26.848,71 25,69.432 25,67.5 C25,65.568 26.848,64 29.125,64 L53.875,64 C56.152,64 58,65.568 58,67.5 C58,69.432 56.152,71 53.875,71 Z" id="Path" fill="#FFFFFF"></path>
                <path d="M103.85,85 L29.15,85 C26.8592,85 25,83.432 25,81.5 C25,79.568 26.8592,78 29.15,78 L103.85,78 C106.1408,78 108,79.568 108,81.5 C108,83.432 106.1408,85 103.85,85 Z" id="Path" fill="#FFFFFF"></path>
                <path d="M103.85,98 L29.15,98 C26.8592,98 25,96.432 25,94.5 C25,92.568 26.8592,91 29.15,91 L103.85,91 C106.1408,91 108,92.568 108,94.5 C108,96.432 106.1408,98 103.85,98 Z" id="Path" fill="#FFFFFF"></path>
                <path d="M103.85,113 L29.15,113 C26.8592,113 25,111.432 25,109.5 C25,107.568 26.8592,106 29.15,106 L103.85,106 C106.1408,106 108,107.568 108,109.5 C108,111.432 106.1408,113 103.85,113 Z" id="Path" fill="#FFFFFF"></path>
                <path d="M102.9,70 L70.1,70 C67.8368,70 66,68.432 66,66.5 L66,24.5 C66,22.568 67.8368,21 70.1,21 L102.9,21 C105.1632,21 107,22.568 107,24.5 L107,66.5 C107,68.432 105.1632,70 102.9,70 Z M74.2,63 L98.8,63 L98.8,28 L74.2,28 L74.2,63 Z" id="Shape" fill="#FFFFFF" fill-rule="nonzero"></path>
            </g>
        </g>
    </g>
</svg>