
<svg width="114px" height="134px" viewBox="0 0 114 134" version="1.1" xmlns="http://www.w3.org/2000/svg" xmlns:xlink="http://www.w3.org/1999/xlink">
    <g id="Page-1" stroke="none" stroke-width="1" fill="none" fill-rule="evenodd">
        <g id="A4" transform="translate(-342.000000, -199.000000)">
            <g id="0103-server" transform="translate(342.000000, 199.000000)">
                <path d="M99.25,60 L93.75,60 C92.232,60 91,58.432 91,56.5 C91,54.568 92.232,53 93.75,53 L99.25,53 C100.768,53 102,54.568 102,56.5 C102,58.432 100.768,60 99.25,60 Z" id="Path" fill="#FFFFFF"></path>
                <path d="M99.25,87 L93.75,87 C92.232,87 91,85.432 91,83.5 C91,81.568 92.232,80 93.75,80 L99.25,80 C100.768,80 102,81.568 102,83.5 C102,85.432 100.768,87 99.25,87 Z" id="Path" fill="#FFFFFF"></path>
                <path d="M99.25,114 L93.75,114 C92.232,114 91,112.432 91,110.5 C91,108.568 92.232,107 93.75,107 L99.25,107 C100.768,107 102,108.568 102,110.5 C102,112.432 100.768,114 99.25,114 Z" id="Path" fill="#FFFFFF"></path>
                <path d="M114,50.25 C114,45.9821 112.5693,39.7578 110.7396,36.0728 L96.5352,7.4504 C94.4262,3.2026 89.6838,0 85.5,0 L28.5,0 C24.3162,0 19.5738,3.2026 17.4648,7.4504 L3.2604,36.0728 C1.4307,39.7578 0,45.9821 0,50.25 L0,63.65 C0,66.2228 0.8265,68.5678 2.1831,70.35 C0.8265,72.1322 0,74.4772 0,77.05 L0,90.45 C0,93.0228 0.8265,95.3678 2.1831,97.15 C0.8265,98.9322 0,101.2772 0,103.85 L0,123.95 C0,129.4909 3.8361,134 8.55,134 L105.45,134 C110.1639,134 114,129.4909 114,123.95 L114,103.85 C114,101.2772 113.1735,98.9322 111.8169,97.15 C113.1735,95.3678 114,93.0228 114,90.45 L114,77.05 C114,74.4772 113.1735,72.1322 111.8169,70.35 C113.1735,68.5678 114,66.2228 114,63.65 L114,50.25 Z M108.3,77.05 L108.3,90.45 C108.3,92.2992 107.0232,93.8 105.45,93.8 L8.55,93.8 C6.9768,93.8 5.7,92.2992 5.7,90.45 L5.7,77.05 C5.7,75.2008 6.9768,73.7 8.55,73.7 L105.45,73.7 C107.0232,73.7 108.3,75.2008 108.3,77.05 Z M8.55,67 C6.9768,67 5.7,65.4992 5.7,63.65 L5.7,50.25 C5.7,48.4008 6.9768,46.9 8.55,46.9 L105.45,46.9 C107.0232,46.9 108.3,48.4008 108.3,50.25 L108.3,63.65 C108.3,65.4992 107.0232,67 105.45,67 L8.55,67 Z M22.3896,10.8272 C23.4612,8.6698 26.3739,6.7 28.5,6.7 L85.5,6.7 C87.6261,6.7 90.5388,8.6631 91.6104,10.8272 L105.8148,39.4496 C105.9345,39.6908 106.0542,39.9588 106.1739,40.2402 C105.9345,40.2134 105.6951,40.2 105.45,40.2 L8.55,40.2 C8.3049,40.2 8.0655,40.2134 7.8261,40.2402 C7.9458,39.9588 8.0655,39.6975 8.1852,39.4496 L22.3896,10.8272 Z M108.3,123.95 C108.3,125.7992 107.0232,127.3 105.45,127.3 L8.55,127.3 C6.9768,127.3 5.7,125.7992 5.7,123.95 L5.7,103.85 C5.7,102.0008 6.9768,100.5 8.55,100.5 L105.45,100.5 C107.0232,100.5 108.3,102.0008 108.3,103.85 L108.3,123.95 Z" id="Shape" fill="#FFFFFF" fill-rule="nonzero"></path>
                <path d="M17,83.5 C17,85.432 15.656,87 14,87 C12.344,87 11,85.432 11,83.5 C11,81.568 12.344,80 14,80 C15.656,80 17,81.568 17,83.5 Z" id="Path" fill="#FFFFFF"></path>
                <path d="M29,83.5 C29,85.432 27.656,87 26,87 C24.344,87 23,85.432 23,83.5 C23,81.568 24.344,80 26,80 C27.656,80 29,81.568 29,83.5 Z" id="Path" fill="#FFFFFF"></path>
                <path d="M40,83.5 C40,85.432 38.656,87 37,87 C35.344,87 34,85.432 34,83.5 C34,81.568 35.344,80 37,80 C38.656,80 40,81.568 40,83.5 Z" id="Path" fill="#FFFFFF"></path>
                <path d="M51,83.5 C51,85.432 49.656,87 48,87 C46.344,87 45,85.432 45,83.5 C45,81.568 46.344,80 48,80 C49.656,80 51,81.568 51,83.5 Z" id="Path" fill="#FFFFFF"></path>
                <path d="M86,56.5 C86,58.432 84.656,60 83,60 C81.344,60 80,58.432 80,56.5 C80,54.568 81.344,53 83,53 C84.656,53 86,54.568 86,56.5 Z" id="Path" fill="#F99744"></path>
                <path d="M86,83.5 C86,85.432 84.656,87 83,87 C81.344,87 80,85.432 80,83.5 C80,81.568 81.344,80 83,80 C84.656,80 86,81.568 86,83.5 Z" id="Path" fill="#FFFFFF"></path>
                <path d="M86,110.5 C86,112.432 84.656,114 83,114 C81.344,114 80,112.432 80,110.5 C80,108.568 81.344,107 83,107 C84.656,107 86,108.568 86,110.5 Z" id="Path" fill="#4DBA87"></path>
            </g>
        </g>
    </g>
</svg>